<svg xmlns="http://www.w3.org/2000/svg" version="1.0" width="128.000000pt" height="128.000000pt" viewBox="0 0 128.000000 128.000000" preserveAspectRatio="xMidYMid meet">
<metadata>
Created by potrace 1.11, written by Peter Selinger 2001-2013
</metadata>
<g fill="#000000" stroke="none">
<path d="M48.6 9.6 c-17.6 4.2 -33.3 18.9 -39.7 37 -3 8.2 -3.7 22.8 -1.5 31.4 2.8 11.1 7.2 18.7 15.5 27.1 12.5 12.5 26.2 17.7 43.9 16.7 23 -1.4 42.4 -16.2 50.3 -38.4 3 -8.3 3.7 -23.7 1.4 -32.4 -5.3 -20.3 -21.9 -36.8 -41.6 -41.5 -7.9 -1.8 -20.5 -1.8 -28.3 0.1zm29.4 29.4c0 4.6 -0.2 5 -2.4 5 -1.4 -0 -3.6 0.4 -5 1 -2.2 0.8 -2.6 1.6 -2.6 5l0 4 4.6 -0 4.5 -0 -0.3 5.2 -0.3 5.3 -4.2 0.3 -4.3 0.3 0 15.5 0 15.4 -6.5 -0 -6.5 -0 0 -15.5 0 -15.5 -3 -0c-3 -0 -3 -0.1 -3 -5.5 0 -5.4 0 -5.5 3 -5.5 2.9 -0 3 -0.1 3 -4.9 0 -11.2 4 -15.1 15.8 -15.1l7.2 -0 0 5z"/>
</g>
</svg>
