<svg xmlns="http://www.w3.org/2000/svg" version="1.0" width="128.000000pt" height="128.000000pt" viewBox="0 0 128.000000 128.000000" preserveAspectRatio="xMidYMid meet">
<style>
	.style0{
		fill:	#000000;
	}
</style><metadata>
Created by potrace 1.11, written by Peter Selinger 2001-2013
</metadata>
<g class="style0">
<path d="M50.6 9.6 c-19.3 4.7 -35.9 21.4 -41.1 41.4 -2.3 8.8 -1.7 24.2 1.3 32.4 8.1 22.3 27.5 37 50.4 38.4 17.7 1 31.4 -4.2 43.9 -16.7 12.4 -12.4 17.5 -25.7 16.7 -43.1 -0.8 -15.3 -6 -26.9 -17.1 -38 -13.4 -13.4 -34.7 -19.1 -54.1 -14.4zm-0.9 27.1c4.2 5.6 -2.7 13.5 -8.9 10.2 -3.1 -1.6 -3.8 -2.8 -3.8 -6.6 0 -4.2 3.2 -6.6 8 -5.9 1.9 0.3 4.1 1.3 4.7 2.3zm39.3 17.1c2.3 1.1 4.3 3.3 5.8 6.2 2 3.9 2.2 5.9 2.2 18.2l0 13.8 -6.5 -0 -6.5 -0 0 -12.5c0 -12 -0.1 -12.7 -2.5 -15 -3 -3.1 -4.7 -3.1 -8.1 -0.1 -2.7 2.3 -2.8 2.7 -3.2 15l-0.4 12.6 -5.9 -0 -5.9 -0 0 -19.5 0 -19.5 6 -0c5.3 -0 6 0.2 6 2 0 2.5 0.2 2.5 4.6 -0.5 4.4 -3 9.4 -3.2 14.4 -0.7zm-39 18.7l0 19.5 -6.5 -0 -6.5 -0 0 -19.5 0 -19.5 6.5 -0 6.5 -0 0 19.5z"/>
</g>
</svg>
