<svg xmlns="http://www.w3.org/2000/svg" version="1.0" width="128.000000pt" height="128.000000pt" viewBox="0 0 128.000000 128.000000" preserveAspectRatio="xMidYMid meet">
<style>
	.style0{
		fill:	#000000;
	}
</style><metadata>
Created by potrace 1.11, written by Peter Selinger 2001-2013
</metadata>
<g class="style0">
<path d="M50.6 9.6 c-19.3 4.7 -35.9 21.4 -41.1 41.4 -2.3 8.8 -1.7 24.2 1.3 32.4 8.1 22.3 27.5 37 50.4 38.4 17.7 1 31.4 -4.2 43.9 -16.7 12.4 -12.4 17.5 -25.7 16.7 -43.1 -0.8 -15.3 -6 -26.9 -17.1 -38 -13.4 -13.4 -34.7 -19.1 -54.1 -14.4zm31.8 34c2.7 1.3 4 1.4 6.5 0.6 3.3 -1.2 4.1 -0.3 1.6 1.8 -2.2 1.8 -1.8 3.2 0.7 2.4 2.1 -0.6 2.1 -0.6 -0.3 2.4 -1.7 2 -2.8 4.7 -3.2 8.1 -1.3 10.9 -9.2 21.9 -19 26.2 -7.1 3.1 -19.2 3.2 -25.7 0.2l-4.5 -2 4 -0.7c2.2 -0.4 5.7 -1.5 7.8 -2.4l3.9 -1.6 -3.6 -1.8c-1.9 -1 -4.2 -2.8 -5.1 -4 -1.5 -2.2 -1.4 -2.3 0.6 -2.8 2.1 -0.5 2.1 -0.6 -0.4 -1.9 -2.4 -1.3 -5.7 -6.5 -5.7 -8.9 0 -0.6 0.9 -0.8 2 -0.5 1.9 0.5 1.9 0.4 -0.2 -3.4 -1.6 -2.9 -1.9 -4.7 -1.4 -7.6l0.7 -3.7 5.4 4.5c4.8 3.9 13.1 7.5 17.2 7.5 0.8 -0 1.3 -1.1 1.3 -2.8 0 -1.5 0.9 -4 1.9 -5.6 3.7 -5.6 9.2 -7 15.5 -4z"/>
</g>
</svg>
